# xmcd
# Copyright (C) 1995-1998 Ti Kan
#
# Track frame offsets:
#       150
#       16286
#       35421
#       56179
#       78223
#       100242
#       118905
#       144078
#       159771
#       183113
#       207405
#       224288
#       247707
#
# Disc length: 3623 seconds
#
# Revision: 2
# Processed by: cddbd v1.4PL0 Copyright (c) Steve Scherf et al.
# Submitted via: CD-Transfer v1.0
#
DISCID=a20e250d
DTITLE=Bäck Tu Dä Ruuts - Koffein
DYEAR=1998
DGENRE=
TTITLE0=Grüen Vor Niid
TTITLE1=Koffein
TTITLE2=Schloflos
TTITLE3=Ganz För Ois
TTITLE4=Kompiuter
TTITLE5=Wirbelwind
TTITLE6=Tigerfrau
TTITLE7=Me Denn Je
TTITLE8=Händi
TTITLE9=Foif Täg
TTITLE10=Schtrömpf
TTITLE11=Frog Ned Wieso
TTITLE12=Helf Mer
EXTD=
EXTT0=
EXTT1=
EXTT2=
EXTT3=
EXTT4=
EXTT5=
EXTT6=
EXTT7=
EXTT8=
EXTT9=
EXTT10=
EXTT11=
EXTT12=
PLAYORDER=
